<?xml version="1.0" encoding="utf-8"?>
<!-- Generator: Adobe Illustrator 23.0.3, SVG Export Plug-In . SVG Version: 6.00 Build 0)  -->
<svg version="1.1" id="Layer_1" xmlns="http://www.w3.org/2000/svg" xmlns:xlink="http://www.w3.org/1999/xlink" x="0px" y="0px"
	 viewBox="0 0 43 43" style="enable-background:new 0 0 43 43;" xml:space="preserve">
<style type="text/css">
	.st0{clip-path:url(#SVGID_2_);}
	.st1{clip-path:url(#SVGID_4_);}
	.st2{fill:#EA847C;}
	.st3{fill:none;}
	.st4{fill:none;stroke:#F58E81;stroke-width:4;stroke-linejoin:round;}
</style>
<g>
	<g>
		<defs>
			<rect id="SVGID_1_" y="0" width="43" height="43"/>
		</defs>
		<clipPath id="SVGID_2_">
			<use xlink:href="#SVGID_1_"  style="overflow:visible;"/>
		</clipPath>
		<g id="Component_5_2" class="st0">
			<g>
				<g>
					<defs>
						<rect id="SVGID_3_" x="1" y="1" width="16" height="16"/>
					</defs>
					<clipPath id="SVGID_4_">
						<use xlink:href="#SVGID_3_"  style="overflow:visible;"/>
					</clipPath>
					<g id="Down_arrow" transform="translate(30 30) rotate(180)" class="st1">
						<path id="Path_10" class="st2" d="M1,9l1.5,1.5L8,4.9V17h2V4.9l5.5,5.5L17,9L9,1L1,9z"/>
					</g>
				</g>
			</g>
			<g id="Rectangle_1479">
				<path class="st3" d="M38,43H5c-2.8,0-5-2.2-5-5V5c0-2.8,2.2-5,5-5h33c2.8,0,5,2.2,5,5v33C43,40.8,40.8,43,38,43z"/>
				<path class="st4" d="M38,41H5c-1.7,0-3-1.3-3-3V5c0-1.7,1.3-3,3-3h33c1.7,0,3,1.3,3,3v33C41,39.7,39.7,41,38,41z"/>
			</g>
		</g>
	</g>
</g>
<g id="Down_arrow_1_" transform="translate(16 16) rotate(180)">
	<path id="Path_10_1_" class="st2" d="M-13.5-5.5L-12-4l5.5-5.5V2.5h2.1V-9.6L1-4l1.5-1.5l-8-8L-13.5-5.5z"/>
</g>
</svg>
